HIERARCHY
ROOT SimulationBone
{
	OFFSET 0.000000 0.000000 0.000000
	CHANNELS 6 Xposition Yposition Zposition Zrotation Yrotation Xrotation 
	JOINT Hips
	{
		OFFSET 0.000000 0.000000 0.000000
		CHANNELS 6 Xposition Yposition Zposition Zrotation Yrotation Xrotation 
		JOINT RightUpLeg
		{
			OFFSET 0.103456 1.857829 10.548506
			CHANNELS 3 Zrotation Yrotation Xrotation
			JOINT RightLeg
			{
				OFFSET 43.499992 -0.000038 -0.000002
				CHANNELS 3 Zrotation Yrotation Xrotation
				JOINT RightFoot
				{
					OFFSET 42.372192 0.000015 -0.000007
					CHANNELS 3 Zrotation Yrotation Xrotation
					JOINT RightToe
					{
						OFFSET 17.299999 -0.000002 0.000003
						CHANNELS 3 Zrotation Yrotation Xrotation
						End Site
						{
							OFFSET 0.000000 0.000000 0.000000
						}
					}
				}
			}
		}
		JOINT LeftUpLeg
		{
			OFFSET 0.103457 1.857829 -10.548503
			CHANNELS 3 Zrotation Yrotation Xrotation
			JOINT LeftLeg
			{
				OFFSET 43.500042 -0.000027 0.000008
				CHANNELS 3 Zrotation Yrotation Xrotation
				JOINT LeftFoot
				{
					OFFSET 42.372257 -0.000008 0.000014
					CHANNELS 3 Zrotation Yrotation Xrotation
					JOINT LeftToe
					{
						OFFSET 17.299992 -0.000005 0.000004
						CHANNELS 3 Zrotation Yrotation Xrotation
						End Site
						{
							OFFSET 0.000000 0.000000 0.000000
						}
					}
				}
			}
		}
		JOINT Spine
		{
			OFFSET 6.901968 -2.603733 -0.000001
			CHANNELS 3 Zrotation Yrotation Xrotation
			JOINT Spine1
			{
				OFFSET 12.588099 0.000002 0.000000
				CHANNELS 3 Zrotation Yrotation Xrotation
				JOINT Spine2
				{
					OFFSET 12.343206 0.000000 -0.000001
					CHANNELS 3 Zrotation Yrotation Xrotation
					JOINT Neck
					{
						OFFSET 25.832886 -0.000004 0.000003
						CHANNELS 3 Zrotation Yrotation Xrotation
						JOINT Head
						{
							OFFSET 11.766620 0.000005 -0.000001
							CHANNELS 3 Zrotation Yrotation Xrotation
							End Site
							{
								OFFSET 0.000000 0.000000 0.000000
							}
						}
					}
					JOINT RightShoulder
					{
						OFFSET 19.745899 -1.480370 6.000108
						CHANNELS 3 Zrotation Yrotation Xrotation
						JOINT RightArm
						{
							OFFSET 11.284125 -0.000009 -0.000018
							CHANNELS 3 Zrotation Yrotation Xrotation
							JOINT RightForeArm
							{
								OFFSET 33.000050 0.000004 0.000032
								CHANNELS 3 Zrotation Yrotation Xrotation
								JOINT RightHand
								{
									OFFSET 25.200008 0.000015 0.000008
									CHANNELS 3 Zrotation Yrotation Xrotation
									End Site
									{
										OFFSET 0.000000 0.000000 0.000000
									}
								}
							}
						}
					}
					JOINT LeftShoulder
					{
						OFFSET 19.746099 -1.480375 -6.000073
						CHANNELS 3 Zrotation Yrotation Xrotation
						JOINT LeftArm
						{
							OFFSET 11.284138 -0.000015 -0.000012
							CHANNELS 3 Zrotation Yrotation Xrotation
							JOINT LeftForeArm
							{
								OFFSET 33.000092 0.000017 0.000013
								CHANNELS 3 Zrotation Yrotation Xrotation
								JOINT LeftHand
								{
									OFFSET 25.199780 0.000135 0.000422
									CHANNELS 3 Zrotation Yrotation Xrotation
									End Site
									{
										OFFSET 0.000000 0.000000 0.000000
									}
								}
							}
						}
					}
				}
			}
		}
	}
}
MOTION
Frames: 11
Frame Time: 0.033333
43.368764 0.000000 -346.632402 0.000000 79.323013 0.000000 -0.935254 89.545052 -0.311693 92.681004 -1.067021 -173.848833 169.408253 -2.291312 165.512682 -31.228294 3.249474 -4.734924 93.400091 2.613830 -4.634680 21.454560 0.003105 0.000016 169.881244 11.843595 -171.935136 -26.049780 -0.371339 -0.835679 83.414198 2.577485 9.210338 21.454550 -0.003084 0.000002 7.184517 0.046715 0.252951 4.356343 0.084012 0.507488 4.038257 0.086940 0.506971 13.896803 -4.035942 11.705330 -8.626787 -6.283453 13.596315 176.729314 -76.292687 1.922111 5.882933 64.029724 9.580245 -39.355601 -12.351808 1.295854 0.310199 -3.082091 18.686013 -143.954843 83.057170 38.015030 -4.994624 -68.751018 -28.782298 -70.956424 17.257750 -2.689551 -6.496506 17.081612 -31.141851 
42.666535 0.000000 -346.251228 0.000000 80.354178 0.000000 -0.293001 89.483856 -0.462631 92.739831 -1.117799 -175.240792 169.563927 -1.626502 165.590328 -31.378422 3.250925 -5.123384 93.748069 2.930368 -4.295978 21.454562 0.003104 0.000015 169.964954 12.305487 -172.113664 -25.937459 -0.592085 -0.973880 83.279513 2.791315 9.668903 21.454553 -0.003089 0.000000 7.221050 0.015516 0.285718 4.429286 0.020219 0.571795 4.111213 0.023538 0.571662 14.413974 -3.208722 11.963418 -8.307025 -6.272002 13.938750 176.301020 -76.404422 2.356818 6.557403 62.342798 14.047512 -41.620260 -12.029240 1.334368 5.106106 9.164063 22.208702 -142.133614 83.098882 39.853034 -9.224397 -65.795424 -28.225036 -72.999416 16.454720 -2.719024 -7.305967 10.694764 -41.857158 
42.026674 0.000000 -346.041778 0.000000 81.404733 0.000000 0.153475 89.371696 -0.664948 92.778515 -1.382228 -176.743705 169.721035 -0.794101 165.102283 -31.494429 3.374913 -5.267599 94.129480 3.073984 -3.966357 21.454558 0.003104 0.000018 169.586180 13.138107 -172.206759 -26.600117 -0.778174 -1.312989 83.406322 3.105215 10.041369 21.454550 -0.003077 0.000002 7.277999 -0.053119 0.355709 4.542781 -0.120000 0.709076 4.224705 -0.115848 0.709793 14.746436 -2.794984 12.129179 -8.258453 -6.234821 14.149015 176.265462 -76.750207 2.384290 6.449953 61.491708 16.748541 -42.900309 -10.910505 1.295636 9.715448 12.090243 22.124750 -141.639559 83.539709 40.333503 -12.401697 -63.245195 -27.971844 -74.350926 15.613350 -2.717117 -1.201752 3.515657 -42.043311 
41.446704 0.000000 -345.995565 0.000000 82.466384 0.000000 0.399226 89.209473 -0.931637 92.727318 -1.945275 -178.252899 169.809240 0.282194 164.410508 -31.523116 3.404376 -5.289173 94.529927 3.134640 -3.615894 21.454558 0.003098 0.000015 168.645266 14.343911 -172.500676 -28.055521 -0.979966 -1.647324 83.781750 3.391508 10.400961 21.454557 -0.003097 -0.000002 7.326221 -0.173882 0.443620 4.638246 -0.365192 0.879991 4.320178 -0.360010 0.882167 15.026413 -2.836013 12.284662 -8.352833 -6.103000 14.292617 176.109666 -77.230301 2.530998 5.759586 61.324573 19.165721 -42.515055 -10.144459 1.234274 8.707505 6.637243 20.685976 -140.821849 84.177082 41.131433 -15.029449 -61.485998 -28.539548 -73.311815 15.588648 -2.671227 6.917182 -3.737951 -35.131464 
40.924148 0.000000 -346.104099 0.000000 83.530593 0.000000 0.453859 88.995247 -1.249854 92.549326 -2.792182 -179.749688 169.715803 1.666598 163.784111 -31.516351 3.404231 -5.367396 94.913210 3.226974 -3.296799 21.454557 0.003107 0.000016 166.709878 15.760194 -172.961154 -30.822489 -1.587026 -1.962950 84.011177 3.713865 10.857915 21.454555 -0.003097 -0.000001 7.355980 -0.364818 0.536629 4.695764 -0.750864 1.058145 4.377691 -0.744596 1.062657 15.242610 -2.988129 12.489538 -8.554126 -6.199998 14.548494 175.674323 -77.268093 2.974015 4.969782 61.062752 21.063246 -41.573681 -9.982906 1.198003 5.501474 -0.394533 19.860361 -140.359445 84.808424 41.570102 -17.029687 -60.820669 -29.930606 -69.822169 16.615362 -2.597143 10.911498 -9.294126 -26.645427 
40.456530 0.000000 -346.358892 0.000000 84.588763 0.000000 0.343881 88.727951 -1.579460 92.363783 -3.769392 178.955709 169.463031 3.180498 163.330437 -31.625340 3.417931 -5.456008 95.303105 3.323662 -2.970549 21.454558 0.003105 0.000018 164.207597 17.101598 -174.175110 -34.465732 -2.047716 -1.407089 83.834015 3.467877 11.342673 21.454551 -0.003095 0.000000 7.421542 -0.596901 0.580060 4.824481 -1.217205 1.135001 4.506374 -1.210456 1.142321 15.011943 -3.267806 12.826903 -8.690641 -6.108814 14.850199 176.327631 -76.934411 2.316165 3.779894 60.592070 21.448466 -40.650410 -9.904828 1.168316 2.965326 -6.099107 19.321164 -138.358937 84.993590 43.576655 -19.428036 -60.832533 -31.647989 -64.115491 18.573625 -2.502408 10.760108 -11.872511 -19.462175 
40.041372 0.000000 -346.751456 0.000000 85.632415 0.000000 0.137330 88.478340 -1.873941 92.355454 -4.682674 177.935138 169.381574 4.636594 163.498924 -31.679643 3.252723 -5.706944 95.638187 3.528967 -2.644659 21.454557 0.003107 0.000018 161.349613 18.059193 -176.063289 -38.972253 -2.410858 -0.145311 82.565710 2.713497 11.268703 21.454550 -0.003088 -0.000000 7.539650 -0.835065 0.582697 5.058655 -1.694566 1.128684 4.740478 -1.687854 1.138898 14.861669 -3.463745 13.060070 -8.957371 -5.937905 15.040748 176.528753 -76.667910 2.117503 2.550977 60.267957 20.535485 -39.838243 -9.971923 1.151640 2.171248 -8.833896 18.400482 -139.808877 84.992654 42.116504 -21.508496 -61.498675 -33.392897 -56.495404 20.270135 -2.328866 8.756119 -8.931008 -12.047118 
39.676198 0.000000 -347.273301 0.000000 86.653359 0.000000 -0.187799 88.244591 -2.072157 92.284198 -5.352698 177.273373 169.153501 5.766905 163.918693 -31.886765 3.087276 -5.875890 96.005952 3.674217 -2.322295 21.454562 0.003112 0.000016 157.982112 18.412595 -177.934269 -44.227080 -2.883774 1.463961 80.087287 1.628256 10.378354 21.454551 -0.003093 0.000000 7.658601 -1.021203 0.545557 5.295782 -2.066069 1.044253 4.977511 -2.059869 1.056722 14.851801 -3.843834 13.124833 -9.506737 -5.631338 15.030335 176.150032 -76.344405 2.512521 1.266343 59.950572 18.574197 -39.209264 -9.911061 1.131557 3.216513 -8.507738 15.920836 -141.633398 85.004484 40.278408 -22.950547 -63.011712 -34.476585 -47.902395 20.893301 -2.076068 7.870745 -1.771049 -5.169281 
39.358530 0.000000 -347.915939 0.000000 87.643839 0.000000 -0.612479 88.101189 -2.228645 92.186554 -5.753894 176.816099 169.021719 6.609803 164.270202 -31.887107 3.044381 -5.876811 96.278784 3.702536 -2.012491 21.454562 0.003110 0.000017 154.511925 17.972000 -179.564553 -49.489553 -3.497102 3.754990 76.711938 0.227568 10.009629 21.454553 -0.003082 -0.000001 7.806463 -1.149700 0.476834 5.592125 -2.320895 0.898031 5.273790 -2.315569 0.912037 14.563988 -4.289610 13.210188 -9.940378 -5.129989 14.948733 176.544394 -76.314926 2.110408 -0.400980 59.932622 16.319361 -38.514276 -9.786882 1.105909 4.917086 -6.575842 12.735006 -143.116560 84.992026 38.784915 -23.989991 -65.003812 -34.027907 -39.571114 19.915809 -1.767036 9.147786 6.021283 3.465333 
39.085894 0.000000 -348.670881 0.000000 88.596655 0.000000 -1.083367 88.060837 -2.285026 92.050027 -5.938606 176.556482 169.053152 7.138396 164.635645 -31.636992 2.998282 -5.740123 96.416644 3.636395 -1.731609 21.454560 0.003106 0.000016 151.385242 16.923500 178.931176 -54.227133 -3.255005 7.578322 74.118132 -2.623323 8.901403 21.454555 -0.003087 -0.000002 7.964213 -1.238601 0.352614 5.909980 -2.493433 0.641972 5.591573 -2.489647 0.657015 14.210075 -4.493654 13.264866 -10.357279 -4.848104 14.909058 176.863732 -76.390017 1.782321 -1.618411 59.841166 15.079524 -37.791621 -9.785637 1.088036 5.550438 -4.910625 11.760343 -145.365058 84.906648 36.522978 -24.084946 -66.986425 -31.791587 -32.805641 17.502718 -1.447723 12.883143 12.557239 10.275404 
38.855810 0.000000 -349.529638 0.000000 89.505227 0.000000 -1.556939 88.138107 -2.250670 91.837940 -5.803469 176.543306 169.206476 7.244284 165.077353 -31.233130 2.930986 -5.469232 96.432156 3.478403 -1.490307 21.454558 0.003114 0.000018 148.852116 15.609404 179.110113 -57.920926 -3.010634 10.969233 73.575850 -5.523486 7.217611 21.454555 -0.003089 0.000001 8.103790 -1.259895 0.177795 6.193033 -2.527399 0.288248 5.874625 -2.525732 0.303503 14.012167 -4.092579 13.197508 -10.799290 -5.148941 14.980369 175.689841 -76.688913 2.973477 -1.556002 59.902378 14.809283 -37.437274 -9.784406 1.079353 5.612469 -3.789479 12.337461 -145.676037 84.736495 36.215838 -22.001274 -68.424494 -31.190376 -28.662581 15.183528 -1.216228 17.172885 14.953803 16.004740 
